#!OML:ASF F:\VICON\USERDATA\INSTALL\rory3\rory3.ASF
:FULLY-SPECIFIED
:DEGREES
486
root -0.202144 18.0271 -4.17385 -1.31071 -67.3779 2.62319
lowerback 4.86313 0.935586 -3.42524
upperback -5.37366 0.948613 0.567426
thorax -8.46482 0.675497 2.40903
lowerneck -25.8851 -7.57253 -12.305
upperneck -8.36672 -7.18684 12.1274
head 2.27163 -3.00937 5.13405
rclavicle 9.77772e-015 -4.77083e-015
rhumerus 80.9834 -20.0633 -27.3086
rradius 44.8782
rwrist 7.77441
rhand -20.2187 13.0122
rfingers 7.12502
rthumb 6.12866 -16.8791
lclavicle 9.77772e-015 -4.77083e-015
lhumerus 93.116 26.5215 44.9907
lradius 34.3303
lwrist 8.10997
lhand -12.0446 30.6096
lfingers 7.12502
lthumb 14.014 60.1172
rfemur -0.868328 0.0446937 19.0417
rtibia 24.9796
rfoot -14.125 4.80159
rtoes 17.7814
lfemur -12.5615 -7.9431 -7.80652
ltibia 34.0164
lfoot -7.55358 5.55911
ltoes -22.4743
487
root -0.213156 18.0315 -4.12829 -1.48647 -67.5279 2.74192
lowerback 4.83156 0.970053 -3.538
upperback -5.41091 1.00281 0.808476
thorax -8.49958 0.718612 2.72145
lowerneck -25.5491 -7.7003 -12.949
upperneck -8.45355 -7.2129 12.4247
head 2.24305 -3.00362 5.33566
rclavicle -8.72168e-015 5.56597e-015
rhumerus 80.4713 -19.8458 -26.8271
rradius 46.1934
rwrist 8.03965
rhand -20.4655 13.417
rfingers 7.12502
rthumb 5.89037 -16.4812
lclavicle -8.72168e-015 5.56597e-015
lhumerus 94.3719 26.0754 46.3687
lradius 32.5448
lwrist 6.27656
lhand -11.452 30.6043
lfingers 7.12502
lthumb 14.585 60.0715
rfemur -0.88404 0.0195442 18.7726
rtibia 25.2569
rfoot -13.7593 5.09206
rtoes 17.9214
lfemur -12.2825 -8.07881 -8.03727
ltibia 33.3895
lfoot -7.3617 6.70683
ltoes -26.7472
488
root -0.224052 18.0333 -4.07826 -1.58755 -67.6804 2.78921
lowerback 4.79077 1.02783 -3.58059
upperback -5.43775 1.09291 1.02091
thorax -8.5187 0.773612 2.9601
lowerneck -25.5192 -7.61262 -13.0671
upperneck -8.29256 -7.06519 12.1544
head 2.25634 -2.93627 5.28228
rclavicle -6.63444e-014 1.98785e-016
rhumerus 79.7624 -19.7721 -26.0373
rradius 47.59
rwrist 7.84225
rhand -20.781 13.8621
rfingers 7.12502
rthumb 5.58581 -16.0443
lclavicle -6.63444e-014 1.98785e-016
lhumerus 96.0727 25.475 47.9829
lradius 30.0692
lwrist 4.03035
lhand -11.1799 30.1144
lfingers 7.12502
lthumb 14.8472 59.5624
rfemur -0.886802 -0.125503 18.5199
rtibia 25.5266
rfoot -13.4792 5.45663
rtoes 17.2893
lfemur -12.0143 -8.42079 -8.2344
ltibia 32.7636
lfoot -7.22997 7.9275
ltoes -28.0743
489
root -0.233823 18.0275 -4.02448 -1.69756 -67.6636 2.85129
lowerback 4.77142 1.05329 -3.67852
upperback -5.50093 1.13698 1.28959
thorax -8.59048 0.813045 3.29562
lowerneck -25.3975 -7.71254 -13.5554
upperneck -8.16545 -7.07528 12.1889
head 2.29566 -2.92816 5.36988
rclavicle 1.67973e-014 8.74653e-015
rhumerus 78.9591 -19.6893 -25.0383
rradius 49.1072
rwrist 7.48976
rhand -21.1551 14.0453
rfingers 7.12502
rthumb 5.22459 -15.8703
lclavicle 1.67973e-014 8.74653e-015
lhumerus 97.7706 24.7191 50.0002
lradius 27.742
lwrist 1.43177
lhand -10.3279 29.7352
lfingers 7.12502
lthumb 15.6679 59.1209
rfemur -0.858605 -0.250699 18.276
rtibia 25.8041
rfoot -13.4065 5.70504
rtoes 17.1256
lfemur -11.8502 -8.90501 -8.44358
ltibia 32.1441
lfoot -7.40478 9.05228
ltoes -26.2434
490
root -0.243874 18.023 -3.97212 -1.91233 -67.692 3.0911
lowerback 4.69146 1.05236 -3.90607
upperback -5.58361 1.13978 1.61961
thorax -8.65093 0.842941 3.77638
lowerneck -25.1265 -7.82961 -14.1731
upperneck -8.15366 -7.09126 12.2633
head 2.28704 -2.92421 5.49408
rclavicle 3.24019e-014 -9.93923e-015
rhumerus 78.3518 -19.523 -24.1999
rradius 50.6588
rwrist 7.35065
rhand -21.4918 14.0478
rfingers 7.12502
rthumb 4.89949 -15.8755
lclavicle 3.24019e-014 -9.93923e-015
lhumerus 98.697 24.2628 51.4393
lradius 26.2054
lwrist -0.782711
lhand -9.64641 29.5428
lfingers 7.12502
lthumb 16.3241 58.8758
rfemur -0.897975 -0.173273 17.9789
rtibia 26.1138
rfoot -13.3992 5.93757
rtoes 17.8579
lfemur -11.7358 -9.55987 -8.71582
ltibia 31.5099
lfoot -8.12266 10.1833
ltoes -22.5056
491
root -0.251283 18.0168 -3.91694 -2.10893 -67.7025 3.26171
lowerback 4.67398 0.957843 -3.81883
upperback -5.61836 1.02365 1.67668
thorax -8.66585 0.783118 3.80265
lowerneck -25.0447 -7.60274 -13.8509
upperneck -8.12863 -6.88815 11.9319
head 2.23068 -2.84752 5.35928
rclavicle -1.04362e-014 -1.63003e-014
rhumerus 77.702 -19.4777 -23.8521
rradius 52.2151
rwrist 7.27668
rhand -22.1793 14.0208
rfingers 7.12502
rthumb 4.23568 -15.9168
lclavicle -1.04362e-014 -1.63003e-014
lhumerus 99.1425 24.0655 51.7592
lradius 25.2536
lwrist -2.60038
lhand -9.10366 29.7045
lfingers 7.12502
lthumb 16.8467 58.9937
rfemur -0.933795 -0.309537 17.6744
rtibia 26.452
rfoot -13.2743 6.37867
rtoes 18.1633
lfemur -11.5864 -10.1319 -8.97516
ltibia 30.875
lfoot -8.6827 10.8978
ltoes -20.4065
